<?xml version="1.0" encoding="UTF-8" standalone="no"?>
<svg width="384px" height="41px" viewBox="0 0 384 41" version="1.1" xmlns="http://www.w3.org/2000/svg" xmlns:xlink="http://www.w3.org/1999/xlink" xmlns:sketch="http://www.bohemiancoding.com/sketch/ns">
    <!-- Generator: Sketch 3.3.2 (12043) - http://www.bohemiancoding.com/sketch -->
    <title>Campus Confidential Copy</title>
    <desc>Created with Sketch.</desc>
    <defs></defs>
    <g id="Page-1" stroke="none" stroke-width="1" fill="none" fill-rule="evenodd" sketch:type="MSPage">
        <path d="M16.514,2.264 C4.586,2.264 0.764,10.748 0.764,20.408 C0.764,28.556 4.754,32.336 13.154,32.336 C15.212,32.336 21.764,31.748 22.268,29.144 C22.646,27.128 22.688,25.448 22.688,25.154 C22.688,24.608 22.436,24.524 22.184,24.524 C21.596,24.524 18.488,26.834 13.742,26.834 C9.5,26.834 7.442,24.314 7.442,19.484 C7.442,11.714 10.424,7.808 15.8,7.808 C19.79,7.808 21.344,9.152 21.848,9.152 C22.898,9.152 24.998,6.254 24.998,5.12 C24.998,3.398 20.126,2.264 16.514,2.264 L16.514,2.264 Z M47.006,27.17 C46.838,27.17 46.376,27.422 45.788,27.422 C44.906,27.422 44.528,27.044 44.528,26.078 C44.528,25.364 46.082,11.21 46.082,11.042 C46.082,10.37 45.326,9.992 43.646,9.992 L43.142,9.992 C41,10.034 40.874,10.454 40.412,11.966 C39.53,11.126 37.724,9.74 35.33,9.74 C29.828,9.74 26.006,15.2 26.006,23.264 C26.006,29.186 28.736,32.378 32.81,32.378 C35.246,32.378 37.346,30.992 38.522,29.144 C39.11,31.412 40.79,32.336 43.352,32.336 C44.822,32.336 46.796,31.706 47.048,30.152 C47.3,28.682 47.342,27.716 47.342,27.632 C47.342,27.254 47.258,27.17 47.006,27.17 L47.006,27.17 Z M39.11,17.93 C38.942,18.854 38.648,22.886 38.438,24.86 C37.598,26.162 36.506,27.296 35.162,27.296 C33.23,27.296 32.306,25.784 32.306,22.886 C32.306,17.51 33.944,14.654 36.758,14.654 C37.934,14.654 38.816,15.158 39.53,15.788 C39.32,16.88 39.194,17.384 39.11,17.93 L39.11,17.93 Z M82.286,27.17 C82.118,27.17 81.656,27.422 81.068,27.422 C80.186,27.422 79.808,27.002 79.808,26.036 C79.808,25.322 80.858,15.956 80.858,15.032 C80.858,11.378 79.052,9.698 75.314,9.698 C72.626,9.698 69.896,11.336 68.594,12.932 C67.964,10.748 66.2,9.698 63.302,9.698 C60.782,9.698 58.22,11.252 56.834,12.89 C56.75,11.546 56.414,10.16 55.448,10.16 C52.718,10.16 50.576,10.748 50.576,11.672 C50.576,12.302 50.66,13.016 50.66,14.024 C50.66,15.578 50.66,15.2 49.064,30.782 C49.064,31.454 49.778,32.084 51.458,32.084 L52.634,32.084 C54.272,32.084 55.196,31.622 55.28,30.74 L56.624,17.258 C57.422,16.082 58.64,14.822 60.236,14.822 C61.874,14.822 62.504,15.578 62.504,16.922 C62.504,17.342 61.118,30.782 61.118,30.782 C61.118,31.454 61.832,32.084 63.512,32.084 L64.688,32.084 C66.326,32.084 67.25,31.622 67.334,30.74 L68.636,17.216 C69.434,16.04 70.694,14.822 72.248,14.822 C73.886,14.822 74.516,15.578 74.516,16.922 C74.516,17.51 73.55,25.994 73.55,27.002 C73.55,30.782 75.356,32.336 78.632,32.336 C80.102,32.336 82.076,31.706 82.328,30.152 C82.58,28.682 82.622,27.716 82.622,27.632 C82.622,27.254 82.538,27.17 82.286,27.17 L82.286,27.17 Z M98.12,9.698 C95.768,9.698 93.794,11 92.618,12.68 C92.618,11.462 92.366,10.16 91.274,10.16 C88.544,10.16 86.402,10.748 86.402,11.672 C86.402,12.302 86.486,13.016 86.486,14.024 C86.486,14.738 86.444,15.788 86.318,17.006 L83.966,39.35 C83.966,40.022 84.68,40.652 86.36,40.652 L87.536,40.652 C89.174,40.652 90.098,40.19 90.182,39.308 L91.106,30.656 C92.114,31.454 93.626,32.336 95.6,32.336 C101.48,32.336 105.554,26.876 105.554,18.812 C105.554,12.89 102.572,9.698 98.12,9.698 L98.12,9.698 Z M94.172,27.422 C93.08,27.422 92.198,27.002 91.526,26.456 C91.862,23.054 92.198,19.778 92.408,17.342 C93.248,15.956 94.34,14.78 95.768,14.78 C98.078,14.78 99.254,16.292 99.254,19.19 C99.254,24.566 97.364,27.422 94.172,27.422 L94.172,27.422 Z M129.536,27.17 C129.368,27.17 128.906,27.422 128.318,27.422 C127.436,27.422 127.058,27.002 127.058,26.036 C127.058,25.616 128.612,11.252 128.612,11.252 C128.612,10.58 127.898,9.95 126.218,9.95 L125.042,9.95 C123.404,9.95 122.48,10.412 122.396,11.294 C122.396,11.294 121.388,20.366 120.968,24.944 C120.212,25.994 118.952,27.212 117.356,27.212 C115.718,27.212 115.088,26.456 115.088,25.154 C115.088,24.608 116.516,11.252 116.516,11.252 C116.516,10.58 115.802,9.95 114.122,9.95 L112.946,9.95 C111.308,9.95 110.384,10.412 110.3,11.294 C110.3,11.294 108.746,25.532 108.746,27.002 C108.746,30.656 110.51,32.336 114.29,32.336 C116.978,32.336 119.54,30.698 121.01,28.976 C121.556,31.328 123.236,32.336 125.882,32.336 C127.352,32.336 129.326,31.706 129.578,30.152 C129.83,28.682 129.872,27.716 129.872,27.632 C129.872,27.254 129.788,27.17 129.536,27.17 L129.536,27.17 Z M141.086,9.698 C136.298,9.698 132.728,12.26 132.728,16.796 C132.728,20.66 135.332,21.92 137.474,22.97 C138.944,23.684 140.204,24.272 140.204,25.574 C140.204,26.666 139.28,27.422 137.432,27.422 C135.752,27.422 134.366,26.75 133.61,26.372 C133.232,26.162 132.938,25.994 132.812,25.994 C132.56,25.994 131.888,26.12 131.888,29.774 C131.888,32.042 136.55,32.336 138.146,32.336 C142.892,32.336 146.588,29.732 146.588,25.07 C146.588,21.038 143.858,19.736 141.674,18.728 C140.288,18.056 139.112,17.51 139.112,16.418 C139.112,15.368 139.826,14.57 141.38,14.57 C142.388,14.57 143.396,14.906 144.11,15.158 C144.488,15.326 144.782,15.41 144.95,15.41 C145.79,15.41 147.176,13.058 147.176,12.26 C147.176,10.244 143.312,9.698 141.086,9.698 L141.086,9.698 Z M175.904,2.264 C163.976,2.264 160.154,10.748 160.154,20.408 C160.154,28.556 164.144,32.336 172.544,32.336 C174.602,32.336 181.154,31.748 181.658,29.144 C182.036,27.128 182.078,25.448 182.078,25.154 C182.078,24.608 181.826,24.524 181.574,24.524 C180.986,24.524 177.878,26.834 173.132,26.834 C168.89,26.834 166.832,24.314 166.832,19.484 C166.832,11.714 169.814,7.808 175.19,7.808 C179.18,7.808 180.734,9.152 181.238,9.152 C182.288,9.152 184.388,6.254 184.388,5.12 C184.388,3.398 179.516,2.264 175.904,2.264 L175.904,2.264 Z M197.282,9.698 C188.504,9.698 185.774,16.292 185.774,23.138 C185.774,29.102 188.882,32.336 194.888,32.336 C201.986,32.336 206.396,27.548 206.396,18.938 C206.396,12.932 203.288,9.698 197.282,9.698 L197.282,9.698 Z M196.778,14.612 C199.046,14.612 200.054,16.166 200.054,19.232 C200.054,24.566 198.29,27.422 195.392,27.422 C193.124,27.422 192.074,25.868 192.074,22.844 C192.074,17.468 193.838,14.612 196.778,14.612 L196.778,14.612 Z M230.504,27.17 C230.336,27.17 229.874,27.422 229.286,27.422 C228.404,27.422 228.026,27.002 228.026,26.036 C228.026,25.322 229.076,15.956 229.076,15.032 C229.076,11.378 227.27,9.698 223.532,9.698 C220.97,9.698 218.324,11.294 216.98,12.974 C216.938,11.546 216.644,10.16 215.594,10.16 C212.864,10.16 210.722,10.748 210.722,11.672 C210.722,12.302 210.806,13.016 210.806,14.024 C210.806,15.578 210.806,15.2 209.21,30.782 C209.21,31.454 209.924,32.084 211.604,32.084 L212.78,32.084 C214.418,32.084 215.342,31.622 215.426,30.74 C215.426,30.74 216.308,22.928 216.77,17.384 C217.526,16.208 218.828,14.822 220.466,14.822 C222.104,14.822 222.734,15.578 222.734,16.922 C222.734,17.51 221.768,25.994 221.768,27.002 C221.768,30.782 223.574,32.336 226.85,32.336 C228.32,32.336 230.294,31.706 230.546,30.152 C230.798,28.682 230.84,27.716 230.84,27.632 C230.84,27.254 230.756,27.17 230.504,27.17 L230.504,27.17 Z M242.726,0.08 C238.736,0.08 236.258,2.6 235.88,6.884 L235.586,10.034 L234.704,10.034 C233.486,10.034 233.108,11.504 233.108,13.436 C233.108,14.486 233.444,14.948 234.2,14.948 L235.04,14.948 L233.402,30.782 C233.402,31.454 234.116,32.084 235.796,32.084 L236.972,32.084 C238.61,32.084 239.534,31.622 239.618,30.74 L241.256,14.948 L242.516,14.948 C244.154,14.948 244.952,12.428 244.952,10.874 C244.952,10.286 244.868,10.034 244.28,10.034 L241.76,10.034 L242.138,6.8 C242.264,5.582 242.726,4.994 243.818,4.994 C244.658,4.994 244.868,5.204 245.204,5.204 C245.918,5.204 246.758,2.726 246.758,2.012 C246.758,0.416 244.742,0.08 242.726,0.08 L242.726,0.08 Z M252.008,0.332 L250.832,0.332 C249.194,0.332 248.27,0.794 248.186,1.676 L247.808,5.12 C247.808,5.792 248.522,6.422 250.202,6.422 L251.378,6.422 C253.016,6.422 253.94,5.96 254.024,5.078 L254.402,1.634 C254.402,0.962 253.688,0.332 252.008,0.332 L252.008,0.332 Z M251,9.95 L249.824,9.95 C248.186,9.95 247.262,10.412 247.178,11.294 C247.178,11.294 245.582,25.826 245.582,27.002 C245.582,30.782 247.388,32.336 250.664,32.336 C252.134,32.336 254.108,31.706 254.36,30.152 C254.612,28.682 254.654,27.716 254.654,27.632 C254.654,27.254 254.57,27.17 254.318,27.17 C254.15,27.17 253.688,27.422 253.1,27.422 C252.218,27.422 251.84,27.002 251.84,26.036 C251.84,25.616 253.394,11.252 253.394,11.252 C253.394,10.58 252.68,9.95 251,9.95 L251,9.95 Z M277.838,27.17 C277.67,27.17 277.208,27.422 276.62,27.422 C275.738,27.422 275.36,27.002 275.36,26.036 C275.36,25.616 277.922,1.634 277.922,1.634 C277.922,0.962 277.208,0.332 275.528,0.332 L274.352,0.332 C272.714,0.332 271.79,0.794 271.706,1.676 L270.656,11.42 C269.69,10.622 268.136,9.698 266.162,9.698 C260.408,9.698 256.418,15.158 256.418,23.222 C256.418,29.144 259.316,32.336 263.642,32.336 C266.12,32.336 268.178,30.992 269.354,29.102 C269.942,31.37 271.58,32.336 274.184,32.336 C275.654,32.336 277.628,31.706 277.88,30.152 C278.132,28.682 278.174,27.716 278.174,27.632 C278.174,27.254 278.09,27.17 277.838,27.17 L277.838,27.17 Z M269.312,24.776 C268.472,26.12 267.38,27.254 265.994,27.254 C263.81,27.254 262.718,25.742 262.718,22.844 C262.718,17.468 264.524,14.612 267.59,14.612 C268.682,14.612 269.564,15.074 270.236,15.62 L269.312,24.776 Z M300.14,15.788 C300.14,13.604 298.838,9.698 291.992,9.698 C285.776,9.698 280.442,13.394 280.442,23.096 C280.442,28.766 283.508,32.336 290.354,32.336 C292.664,32.336 296.99,31.706 297.662,29.396 C297.872,28.724 297.956,26.33 297.998,26.162 C297.998,25.574 297.83,25.574 297.662,25.574 C297.2,25.574 294.512,27.422 291.152,27.422 C288.674,27.422 286.952,26.624 286.742,23.18 C287.918,23.348 289.262,23.474 291.11,23.474 C295.268,23.474 300.14,21.374 300.14,15.788 L300.14,15.788 Z M287.036,19.316 C287.624,16.712 288.968,14.612 291.572,14.612 C293.042,14.612 294.092,15.2 294.092,16.586 C294.092,17.804 293,19.316 289.052,19.316 L287.036,19.316 Z M323.912,27.17 C323.744,27.17 323.282,27.422 322.694,27.422 C321.812,27.422 321.434,27.002 321.434,26.036 C321.434,25.322 322.484,15.956 322.484,15.032 C322.484,11.378 320.678,9.698 316.94,9.698 C314.378,9.698 311.732,11.294 310.388,12.974 C310.346,11.546 310.052,10.16 309.002,10.16 C306.272,10.16 304.13,10.748 304.13,11.672 C304.13,12.302 304.214,13.016 304.214,14.024 C304.214,15.578 304.214,15.2 302.618,30.782 C302.618,31.454 303.332,32.084 305.012,32.084 L306.188,32.084 C307.826,32.084 308.75,31.622 308.834,30.74 C308.834,30.74 309.716,22.928 310.178,17.384 C310.934,16.208 312.236,14.822 313.874,14.822 C315.512,14.822 316.142,15.578 316.142,16.922 C316.142,17.51 315.176,25.994 315.176,27.002 C315.176,30.782 316.982,32.336 320.258,32.336 C321.728,32.336 323.702,31.706 323.954,30.152 C324.206,28.682 324.248,27.716 324.248,27.632 C324.248,27.254 324.164,27.17 323.912,27.17 L323.912,27.17 Z M333.404,4.7 L332.228,4.7 C330.59,4.7 329.666,5.162 329.582,6.044 L329.162,10.034 L328.322,10.034 C327.104,10.034 326.726,11.504 326.726,13.436 C326.726,14.486 327.062,14.948 327.818,14.948 L328.658,14.948 C328.658,14.948 327.44,25.826 327.44,26.75 C327.44,30.656 329.54,32.336 332.9,32.336 C334.37,32.336 336.344,31.706 336.596,30.152 C336.848,28.682 336.89,27.716 336.89,27.632 C336.89,27.254 336.806,27.17 336.554,27.17 C336.344,27.17 335.756,27.422 334.958,27.422 C334.076,27.422 333.698,27.002 333.698,26.036 C333.698,25.91 334.874,14.948 334.874,14.948 L336.092,14.948 C337.73,14.948 338.528,12.428 338.528,10.874 C338.528,10.286 338.444,10.034 337.856,10.034 L335.378,10.034 L335.798,6.002 C335.798,5.33 335.084,4.7 333.404,4.7 L333.404,4.7 Z M347.096,0.332 L345.92,0.332 C344.282,0.332 343.358,0.794 343.274,1.676 L342.896,5.12 C342.896,5.792 343.61,6.422 345.29,6.422 L346.466,6.422 C348.104,6.422 349.028,5.96 349.112,5.078 L349.49,1.634 C349.49,0.962 348.776,0.332 347.096,0.332 L347.096,0.332 Z M346.088,9.95 L344.912,9.95 C343.274,9.95 342.35,10.412 342.266,11.294 C342.266,11.294 340.67,25.826 340.67,27.002 C340.67,30.782 342.476,32.336 345.752,32.336 C347.222,32.336 349.196,31.706 349.448,30.152 C349.7,28.682 349.742,27.716 349.742,27.632 C349.742,27.254 349.658,27.17 349.406,27.17 C349.238,27.17 348.776,27.422 348.188,27.422 C347.306,27.422 346.928,27.002 346.928,26.036 C346.928,25.616 348.482,11.252 348.482,11.252 C348.482,10.58 347.768,9.95 346.088,9.95 L346.088,9.95 Z M372.59,27.17 C372.422,27.17 371.96,27.422 371.372,27.422 C370.49,27.422 370.112,27.044 370.112,26.078 C370.112,25.364 371.666,11.21 371.666,11.042 C371.666,10.37 370.91,9.992 369.23,9.992 L368.726,9.992 C366.584,10.034 366.458,10.454 365.996,11.966 C365.114,11.126 363.308,9.74 360.914,9.74 C355.412,9.74 351.59,15.2 351.59,23.264 C351.59,29.186 354.32,32.378 358.394,32.378 C360.83,32.378 362.93,30.992 364.106,29.144 C364.694,31.412 366.374,32.336 368.936,32.336 C370.406,32.336 372.38,31.706 372.632,30.152 C372.884,28.682 372.926,27.716 372.926,27.632 C372.926,27.254 372.842,27.17 372.59,27.17 L372.59,27.17 Z M364.694,17.93 C364.526,18.854 364.232,22.886 364.022,24.86 C363.182,26.162 362.09,27.296 360.746,27.296 C358.814,27.296 357.89,25.784 357.89,22.886 C357.89,17.51 359.528,14.654 362.342,14.654 C363.518,14.654 364.4,15.158 365.114,15.788 C364.904,16.88 364.778,17.384 364.694,17.93 L364.694,17.93 Z M381.704,0.29 L379.688,0.29 C378.134,0.29 377.63,0.71 377.504,1.55 C377.504,1.55 374.858,25.7 374.858,27.002 C374.858,30.782 376.664,32.336 379.94,32.336 C381.41,32.336 383.384,31.706 383.636,30.152 C383.888,28.682 383.93,27.716 383.93,27.632 C383.93,27.254 383.846,27.17 383.594,27.17 C383.426,27.17 382.964,27.422 382.376,27.422 C381.494,27.422 381.116,27.002 381.116,26.036 C381.116,25.868 383.678,1.424 383.678,1.424 C383.678,0.752 383.216,0.29 381.704,0.29 L381.704,0.29 Z" id="Campus-Confidential-Copy" fill="#6F729E" sketch:type="MSShapeGroup"></path>
    </g>
</svg>